<svg width="222" height="59" viewBox="0 0 222 59" fill="none" xmlns="http://www.w3.org/2000/svg">
<g filter="url(#filter0_d_199_124)">
<g clip-path="url(#clip0_199_124)">
<path d="M11.0169 9.80318L4.47147 16.2913C3.46381 17.2879 4.17893 18.9942 5.60029 18.9942H16.327C17.2106 18.9942 17.9257 19.7039 17.9257 20.5793V31.6037C17.9257 33.0143 19.6485 33.7211 20.6532 32.7245L27.3759 26.0619C28.487 24.9589 29.1134 23.4596 29.1134 21.8923V9.68785C29.1134 8.81251 28.3983 8.10278 27.5148 8.10278H15.1421C13.5966 8.10278 12.1132 8.71197 11.0169 9.80022V9.80318Z" fill="#0BD96D"/>
<path d="M28.4367 27.375L21.8914 33.8631C20.8837 34.8597 21.5988 36.566 23.0202 36.566H33.7469C34.6305 36.566 35.3456 37.2757 35.3456 38.151V49.1755C35.3456 50.5861 37.0684 51.2929 38.0731 50.2963L44.7958 43.6337C45.9069 42.5307 46.5333 41.0314 46.5333 39.464V27.2596C46.5333 26.3843 45.8182 25.6746 44.9347 25.6746H32.562C31.0165 25.6746 29.5331 26.2837 28.4367 27.372V27.375Z" fill="#0BD96D"/>
<path d="M53.321 0H39.1428C38.8769 0 38.6227 0.103502 38.4366 0.289807L32.033 6.63598C31.4597 7.20376 31.7552 8.18851 32.5472 8.33638C35.6263 8.91599 38.7912 10.5602 41.427 13.201C44.0629 15.8418 45.7857 19.1538 46.3235 22.3033C46.4595 23.1017 47.4435 23.4093 48.0197 22.8415L54.6301 16.2913C54.8045 16.1198 54.899 15.8861 54.899 15.6436V1.56436C54.899 0.700859 54.1928 0 53.321 0Z" fill="#0BD96D"/>
</g>
</g>
<path d="M77.7986 38.1921C75.3748 38.1921 73.266 37.6589 71.4724 36.5924C69.6788 35.5017 68.2729 33.9868 67.2549 32.0477C66.2612 30.0844 65.7643 27.806 65.7643 25.2125C65.7643 22.5948 66.2733 20.2922 67.2913 18.3046C68.3335 16.2929 69.8121 14.7174 71.7269 13.5782C73.666 12.439 75.9686 11.8694 78.6348 11.8694C81.6403 11.8694 84.1248 12.5965 86.0881 14.0508C88.0756 15.4809 89.3602 17.4684 89.9419 20.0134H84.2702C83.9066 18.9227 83.2401 18.0744 82.2705 17.4684C81.3252 16.8625 80.1012 16.5595 78.5984 16.5595C76.9502 16.5595 75.5565 16.9109 74.4173 17.6139C73.2781 18.3168 72.4177 19.3226 71.836 20.6315C71.2542 21.9161 70.9634 23.4553 70.9634 25.2489C70.9634 27.0425 71.2542 28.5695 71.836 29.8299C72.4419 31.0903 73.2903 32.0477 74.381 32.7022C75.4959 33.3566 76.8048 33.6838 78.3076 33.6838C80.489 33.6838 82.1372 33.1021 83.2522 31.9387C84.3914 30.751 85.0701 29.2482 85.2882 27.4303H79.1438V23.6492H90.4146V37.7559H85.7245L85.3246 34.6291C84.7913 35.3805 84.1732 36.0228 83.4703 36.5561C82.7674 37.0893 81.9433 37.4892 80.998 37.7559C80.077 38.0467 79.0105 38.1921 77.7986 38.1921Z" fill="white"/>
<path d="M93.1513 37.7559V12.3057H102.786C104.846 12.3057 106.543 12.6571 107.876 13.36C109.233 14.0629 110.239 15.0082 110.894 16.1959C111.572 17.3594 111.912 18.6682 111.912 20.1225C111.912 21.4799 111.585 22.7524 110.93 23.94C110.3 25.1277 109.306 26.0851 107.949 26.8123C106.591 27.5152 104.858 27.8666 102.75 27.8666H98.2414V37.7559H93.1513ZM106.313 37.7559L101.114 26.5941H106.64L112.13 37.7559H106.313ZM98.2414 24.1582H102.495C103.925 24.1582 104.98 23.8067 105.658 23.1038C106.361 22.4009 106.713 21.4677 106.713 20.3043C106.713 19.1651 106.373 18.2562 105.695 17.5775C105.016 16.8988 103.937 16.5595 102.459 16.5595H98.2414V24.1582Z" fill="white"/>
<path d="M126.156 38.1921C123.684 38.1921 121.502 37.6347 119.612 36.5197C117.721 35.4047 116.231 33.8656 115.14 31.9023C114.073 29.9148 113.54 27.6243 113.54 25.0308C113.54 22.4373 114.073 20.1589 115.14 18.1956C116.231 16.208 117.721 14.6568 119.612 13.5418C121.502 12.4269 123.684 11.8694 126.156 11.8694C128.653 11.8694 130.846 12.4269 132.737 13.5418C134.652 14.6568 136.13 16.208 137.172 18.1956C138.239 20.1589 138.772 22.4373 138.772 25.0308C138.772 27.6243 138.239 29.9148 137.172 31.9023C136.13 33.8656 134.652 35.4047 132.737 36.5197C130.846 37.6347 128.653 38.1921 126.156 38.1921ZM126.156 33.6111C127.683 33.6111 129.004 33.2597 130.119 32.5567C131.234 31.8538 132.095 30.8722 132.701 29.6118C133.306 28.3272 133.609 26.8002 133.609 25.0308C133.609 23.2614 133.306 21.7465 132.701 20.4861C132.095 19.2015 131.234 18.2077 130.119 17.5048C129.004 16.8019 127.683 16.4504 126.156 16.4504C124.653 16.4504 123.345 16.8019 122.23 17.5048C121.139 18.2077 120.278 19.2015 119.648 20.4861C119.042 21.7465 118.739 23.2614 118.739 25.0308C118.739 26.8002 119.042 28.3272 119.648 29.6118C120.278 30.8722 121.139 31.8538 122.23 32.5567C123.345 33.2597 124.653 33.6111 126.156 33.6111Z" fill="white"/>
<path d="M145.095 37.7559L138.442 12.3057H143.895L148.185 32.0114L153.348 12.3057H158.947L163.928 32.0114L168.291 12.3057H173.781L166.946 37.7559H160.874L156.075 19.4681L151.13 37.7559H145.095Z" fill="white"/>
<path d="M178.662 37.7559V16.4141H171.245V12.3057H191.133V16.4141H183.716V37.7559H178.662Z" fill="white"/>
<path d="M192.754 37.7559V12.3057H197.844V37.7559H192.754Z" fill="white"/>
<path d="M199.712 37.7559L207.747 24.849L199.603 12.3057H205.492L211.019 20.8497L216.036 12.3057H221.781L213.818 25.0671L221.999 37.7559H216.145L210.546 29.0664L205.492 37.7559H199.712Z" fill="white"/>
<defs>
<filter id="filter0_d_199_124" x="-0.00133133" y="0" width="58.9003" height="58.7605" filterUnits="userSpaceOnUse" color-interpolation-filters="sRGB">
<feFlood flood-opacity="0" result="BackgroundImageFix"/>
<feColorMatrix in="SourceAlpha" type="matrix" values="0 0 0 0 0 0 0 0 0 0 0 0 0 0 0 0 0 0 127 0" result="hardAlpha"/>
<feOffset dy="4"/>
<feGaussianBlur stdDeviation="2"/>
<feComposite in2="hardAlpha" operator="out"/>
<feColorMatrix type="matrix" values="0 0 0 0 0 0 0 0 0 0 0 0 0 0 0 0 0 0 0.25 0"/>
<feBlend mode="normal" in2="BackgroundImageFix" result="effect1_dropShadow_199_124"/>
<feBlend mode="normal" in="SourceGraphic" in2="effect1_dropShadow_199_124" result="shape"/>
</filter>
<clipPath id="clip0_199_124">
<rect width="50.9003" height="50.7605" fill="white" transform="translate(3.99867)"/>
</clipPath>
</defs>
</svg>
